<svg id="Layer_1" data-name="Layer 1" xmlns="http://www.w3.org/2000/svg" viewBox="0 0 868 173"><defs><style>.cls-1,.cls-3{font-size:150px;font-family:MyriadPro-Bold, Myriad Pro;font-weight:700;}.cls-1{fill:#fdbb30;letter-spacing:-0.01em;}.cls-2{fill:#617485;}.cls-3{fill:#00263e;letter-spacing:-0.01em;}</style></defs><text class="cls-1"><tspan x="-9.69" y="141.52">Registr</tspan></text><path class="cls-2" d="M829.65,69.12a1.19,1.19,0,1,0-1.18-1.19A1.19,1.19,0,0,0,829.65,69.12Z"/><path class="cls-2" d="M792,115.27a.35.35,0,0,0-.34.35.35.35,0,1,0,.69,0A.35.35,0,0,0,792,115.27Z"/><path class="cls-2" d="M806.76,116a.34.34,0,0,0,.35-.35.35.35,0,0,0-.35-.35.35.35,0,0,0-.35.35A.35.35,0,0,0,806.76,116Z"/><path class="cls-2" d="M771.33,104.77l2.84,1.64a7.12,7.12,0,0,0-.08,1.14c0,3.79,2.17,6.7,6.51,7.59l.73.19-.72,7v.07a3,3,0,0,0,6,0v-.07l-.74-7.32h-.19v-.5a2.76,2.76,0,0,0-.89-2,3.79,3.79,0,0,0,1.88-.46,4.06,4.06,0,0,0,1.73-2.35l.22-.8,2-1.17v.51a4.3,4.3,0,0,0,1.23,3v2a5.86,5.86,0,0,0-2.51,1.36l-.56.5.17,1s.06.25.08.31c.3.9,1.73,1.65,3.15,1.65a6.09,6.09,0,0,0,1.33-.17h0a7.84,7.84,0,0,1,.78,1.26,4.55,4.55,0,0,0,1.09,1.37,3.58,3.58,0,0,0,.45,5.34,3.31,3.31,0,0,0-.6,1.91,3.55,3.55,0,0,0,1.34,2.84,2.67,2.67,0,0,0-.2,1,2.83,2.83,0,0,0,1.27,2.33,1.79,1.79,0,0,0,3.58,0,2.83,2.83,0,0,0,1.27-2.33,2.67,2.67,0,0,0-.2-1,3.55,3.55,0,0,0,1.34-2.84,3.31,3.31,0,0,0-.6-1.91,3.59,3.59,0,0,0,.46-5.34,4.86,4.86,0,0,0,1.08-1.37,7.84,7.84,0,0,1,.78-1.26h0a6.09,6.09,0,0,0,1.33.17c1.42,0,2.85-.75,3.15-1.65,0-.06.08-.31.08-.31l.17-1-.56-.52a6.06,6.06,0,0,0-2.08-1.23v-1.82a4.16,4.16,0,0,0,1.58-3.32V107h-4.32a6.88,6.88,0,0,0-10.14,0h-2.63l3.84-2.22a.36.36,0,0,0,.13-.47.35.35,0,0,0-.47-.13l-7.22,4.17-.59-.16a4.47,4.47,0,0,0,.42-1.45l.07-.85,5.25-4.4a.34.34,0,0,0,0-.48.35.35,0,0,0-.49,0l-5.27,4.42-.24,0c.05-.17.09-.34.13-.49l1.75-2.09-.6-.56c-.11-.11-.23-.21-.35-.31l2.33-2.78a.34.34,0,0,0,0-.48.33.33,0,0,0-.48,0l-2.35,2.8a9.43,9.43,0,0,0-5.45-1.68,9,9,0,0,0-3.76.8L777,98.69a.35.35,0,0,0-.53.45l1.51,1.79a7.78,7.78,0,0,0-1.94,1.56l-1.85-1.55a.34.34,0,0,0-.44.53l1.85,1.55a7.46,7.46,0,0,0-1.26,2.67l-2.64-1.52a.34.34,0,1,0-.34.6Zm24.15,13.78a7.77,7.77,0,0,0-1.25-1.86c-.46-.46-1.05,0-2.08,0a2.44,2.44,0,0,1-1.88-.73l-.07-.36a4.12,4.12,0,0,1,2.38-1.09c1.18,0,2.75.6,4.14,3.38a2.91,2.91,0,0,0,1.32,1.16c-.48.21-1,.44-1.46.71A3.5,3.5,0,0,1,795.48,118.55Zm.72-3.71H797c0,.38.09,1.41.09,1.41A10.75,10.75,0,0,0,796.2,114.84Zm4.5,15.22a4,4,0,0,0-1.12.69.55.55,0,1,0,.73.83,2.77,2.77,0,0,1,.75-.47,1.49,1.49,0,0,1,.07.47,1.55,1.55,0,0,1-1.22,1.46l0,.76a.46.46,0,0,1-.46.46.47.47,0,0,1-.46-.46l0-.76a1.55,1.55,0,0,1-1.23-1.46,1.83,1.83,0,0,1,.25-.88,7.07,7.07,0,0,1,2.4-2.08l.13-.08,0,0a0,0,0,0,1,0,0l0,0,.06-.05a.87.87,0,0,0,.27-.65.9.9,0,0,0-.39-.66,3.18,3.18,0,0,1,.32-.16l1-.5a2,2,0,0,1,.5,1.32A2.53,2.53,0,0,1,800.7,130.06Zm.17-4.38h0l-.55.28a10.59,10.59,0,0,0-1.75,1,.5.5,0,0,0-.12.08l-.05,0h0a1,1,0,0,0-.45.71,1,1,0,0,0,.56.87,7.5,7.5,0,0,0-1,.92,1.93,1.93,0,0,1-.92-1.79,2.26,2.26,0,0,1,1-1.79l.05,0a14.83,14.83,0,0,1,2-1.19l.68-.37c.8-.41,1.43-.8,1.43-1.36s-.37-.92-1-1.24c.48-.21,1-.42,1.42-.67a2.47,2.47,0,0,1,.91,1.91C803.11,124.31,802,125.08,800.87,125.68Zm-2.06-2.74a.61.61,0,1,1,.61.61A.61.61,0,0,1,798.81,122.94Zm9.82-7.3-.06.36a2.46,2.46,0,0,1-1.88.73c-1,0-1.63-.5-2.08,0a8.05,8.05,0,0,0-1.26,1.86,3.68,3.68,0,0,1-1.42,1.48,18.09,18.09,0,0,1-2,.94c-.45.19-.92.39-1.35.6v0c-.84.38-1.45.81-1.45,1.49,0,.49.48.86,1.14,1.23a8.72,8.72,0,0,0-1.26.81,2.55,2.55,0,0,1-1.25-2,2.69,2.69,0,0,1,1.47-2.32,20.89,20.89,0,0,1,2.12-1,10.4,10.4,0,0,0,1.88-.89h0a2.47,2.47,0,0,0,.9-.92c1.39-2.78,3-3.41,4.14-3.38A4.06,4.06,0,0,1,808.63,115.64Zm-10.34-.8h2.26l-.13,3.21a13.2,13.2,0,0,1-1.51.68l-.45.18Zm3.43,1.46s.13-1.08.14-1.46h.78A11,11,0,0,0,801.72,116.3Zm-10-8.21h4.14a.74.74,0,0,1,.74.74v1h.93v-1a1.67,1.67,0,0,0-1.1-1.56l-.31-.12.27-.19a5.69,5.69,0,0,1,6.67.1l.23.17-.25.13a1.65,1.65,0,0,0-.91,1.47v1h.94v-1a.74.74,0,0,1,.74-.74h4.13v.18a3.6,3.6,0,0,1-.16,1h-2.83v.46h2.65a2.32,2.32,0,0,1-2.18,1.37h-1.08c0,.22,0,.72,0,.94h1.09l.45,0h.43v1.63H793V112h.79l.44,0h1.09c0-.22,0-.72,0-.94h-1.08a2.32,2.32,0,0,1-2.18-1.37h2.59v-.46h-2.78a3.6,3.6,0,0,1-.16-1Zm-6.44,14.33a1.71,1.71,0,0,1-3.34,0l.62-6.08h2.11Zm.79-11.34a3.41,3.41,0,0,1-2.29.24,2.83,2.83,0,0,1,3.64-2.1A3.42,3.42,0,0,1,786.05,111.08ZM784.8,107a3.43,3.43,0,0,1,2.21-.63,2.82,2.82,0,0,1-3.22,2.7A3.48,3.48,0,0,1,784.8,107Zm-.27-2.43a3.14,3.14,0,0,1,1.89-.92,2.58,2.58,0,0,1-2.47,3A3.15,3.15,0,0,1,784.53,104.59Zm-2.19-3.46a8,8,0,0,1,5.46,2.05l-.26.31a7,7,0,0,0-3.59-.95c-3.43,0-5.7,2.32-5.7,5.19a5,5,0,0,0,4.13,5c1.65.39,2,1.29,2,1.77v.5h-1.49c-.07-.54-.57-.88-2-1.17-3.53-.73-5.48-3-5.48-6.31C775.39,104,778.22,101.13,782.34,101.13Zm0,5.89a3.37,3.37,0,0,1,1,2.07,2.81,2.81,0,0,1-3.21-2.7A3.43,3.43,0,0,1,782.31,107Zm-1.63-3.35a2.57,2.57,0,0,1,2.47,3,3.12,3.12,0,0,1-1.89-.92A3.15,3.15,0,0,1,780.68,103.67Zm1.31,5.79a3.36,3.36,0,0,1,1.35,1.86,3.38,3.38,0,0,1-2.28-.24,3.46,3.46,0,0,1-1.36-1.86A3.41,3.41,0,0,1,782,109.46Z"/><path class="cls-2" d="M844.8,112.75l-2.4-5.34a2.5,2.5,0,1,0-2.52-3.6,14.8,14.8,0,0,1-7.57-1.32,2.74,2.74,0,0,0,.12-.76,3.05,3.05,0,0,0-6.1,0,3.23,3.23,0,0,0,.1.76,14.68,14.68,0,0,1-7.54,1.32,2.51,2.51,0,1,0-2.54,3.61L814,112.75h-1.11V114a4.38,4.38,0,0,0,4.38,4.38,4.32,4.32,0,0,0,2.38-.71l-2.55,3.87h0v0l0,0v0l-.31,1.9,8.23,1.65c-.11.42.68.94,1.21,1.08a2.06,2.06,0,0,0,1.3-.09l.23,3.21v-.09a1.71,1.71,0,0,0,3.41,0v0h0l.16-2.24,4.68,1.51,4-9.93v-.57a4.34,4.34,0,0,0,1.57.3,4.39,4.39,0,0,0,4.39-4.38v-1.24Zm-1.08,0h-4.39l2.19-4.89ZM838,116.53a7.62,7.62,0,0,1-1.14-.18,5.55,5.55,0,0,1-2-1,5.48,5.48,0,0,0-2-1,3.36,3.36,0,0,0-.7-.09l.48-6.83h8l-2.39,5.31h-1.11V114A4.29,4.29,0,0,0,838,116.53Zm-20.74-8.67,2.19,4.89H815Zm3.27,4.89-2.38-5.31h8l.44,6.21a5.16,5.16,0,0,1-1.41-.1,5.07,5.07,0,0,1-1.65-.68l-.49-.35-.33.5-1.13,1.72a4.65,4.65,0,0,0,.08-.75v-1.24Zm-3.27,4.38a3.14,3.14,0,0,1-3.14-3.14h6.28A3.15,3.15,0,0,1,817.23,117.13Zm9.35,7.29a2.65,2.65,0,0,0-1.59-1.66,6.09,6.09,0,0,0-2.39-.05,8.62,8.62,0,0,1-2.92-.08,5.35,5.35,0,0,1-1.38-.58c.51-.79,4.53-7.19,5-8a6.7,6.7,0,0,0,1.54.56,6,6,0,0,0,1.76.14l.67,9.22A2,2,0,0,0,826.58,124.42Zm3.25,4.87a.46.46,0,1,1-.91,0l-1.65-23.1H816.65a1.27,1.27,0,1,1,1.27-1.27s0,.06,0,.09c2.29.16,6.94.28,10.14-2.07a1.78,1.78,0,0,1-.48-1.22,1.81,1.81,0,0,1,3.61,0,1.82,1.82,0,0,1-.48,1.22c3.21,2.36,7.87,2.23,10.15,2.07v-.09a1.27,1.27,0,1,1,1.27,1.27H831.47Zm5-2.78a4.14,4.14,0,0,1-1.17-.09c-.55-.14-1.36-.87-2.32-1.33l.72-9.68a2.5,2.5,0,0,1,.51.06,4.73,4.73,0,0,1,1.64.84,6.47,6.47,0,0,0,2.34,1.16,15.1,15.1,0,0,0,2.05.36C838.13,119.09,834.84,126.51,834.84,126.51Zm6.68-9.38a3.14,3.14,0,0,1-3.13-3.14h6.27A3.14,3.14,0,0,1,841.52,117.13Z"/><path class="cls-2" d="M776.74,79.85c0,4.79,3.68,7,6.81,8.1a1.66,1.66,0,0,0,.77,1.13,1.82,1.82,0,0,0-.46.53,1.75,1.75,0,0,0-.16,1.31,1.71,1.71,0,0,0,.67.93c-.8.54-2,1.36-2,2.68v1h9.87v-1c0-1.54-1.62-2.33-2.34-3a5.52,5.52,0,0,1-.43-.38v-.11s1.68-.41,1.68-1.78a1.78,1.78,0,0,0-.81-1.45,1.68,1.68,0,0,0,.46-.53A1.71,1.71,0,0,0,791,86a1.69,1.69,0,0,0-.38-.68c.31-.18.62-.36.85-.52,1.39-1,3.3-2.37,3.3-4.95V77.11h-3.1l.16-.87a3.08,3.08,0,0,1,1.13-.35c.43,0,.87.36,1.32.36s.58-.24.57-.35-.24-.15-.52-.15-.8-.55-1.42-.55a4.69,4.69,0,0,0-1,.19A13.54,13.54,0,0,0,790.28,74h6v21.5h6.4V74h6.64v-6.4h-6.64V60h-6.4v7.66h-6.65v6.06a5.21,5.21,0,0,0-1.59-.39,12.44,12.44,0,0,0-2,.2,19.46,19.46,0,0,0-3-.3A6.45,6.45,0,0,0,776.74,79.85Zm14.15-10.92h6.65V61.27h3.78v7.66H808v3.78h-6.64V94.52h-3.78V72.71h-6.65Zm0,25.41v.17h-7.11v-.17c0-.72,1.73-1.6,2.46-2.34l1.88-.52C788.17,92.3,790.89,93.44,790.89,94.34ZM785.05,87l4.09-1.14a.69.69,0,1,1,.37,1.33l-4.09,1.14a.69.69,0,0,1-.37-1.33Zm4.59,3-4.09,1.14a.69.69,0,0,1-.37-1.33l4.09-1.14a.69.69,0,0,1,.85.48A.68.68,0,0,1,789.64,90Zm3.74-11.49v1.38c0,1.87-1.45,2.91-2.72,3.82-.53.38-1.62,1.1-1.62,1.1l-2.69.74A9.54,9.54,0,0,0,784,83.69c-1.28-.91-2.72-2-2.72-3.82V78.49ZM783,74.57a10.62,10.62,0,0,1,2.76.3,15.73,15.73,0,0,1,2.25-.2,4.41,4.41,0,0,1,2.48,1.24l-.12.66a2.92,2.92,0,0,1-2.3.73,7.79,7.79,0,0,1-2.55-.89,8.84,8.84,0,0,0-2.53-.36,3.64,3.64,0,0,0-3.41,3.8c0,2.15,1.25,3.23,2.52,4.18,1.46,1.09,2.47,1.54,2.88,1.88l-.19,0a1.74,1.74,0,0,0-.91.64c-2.66-1-5.74-2.79-5.74-6.75A5.05,5.05,0,0,1,783,74.57Z"/><path class="cls-2" d="M846.21,80.6c0-3.26-2.29-5.45-5.7-5.45h-4.35L834,69.74a4.73,4.73,0,1,0-9.11-1.81,4.85,4.85,0,0,0,.36,1.83l-2.12,5.39H818.8c-3.41,0-5.71,2.19-5.71,5.45a4.71,4.71,0,0,0,4.72,4.68A4.08,4.08,0,0,0,819.3,85l-1.93,4.92-1.67,4.25c-.42,1.09.3,1.39.3,1.39l1,.51c.59.31,1.08-.11,1.39-.66l1.11-1.93V94h20.38v-.51l1.11,2c.31.55.8,1,1.4.66l1-.51s.73-.3.3-1.39L842,89.91,840,85a4.19,4.19,0,0,0,1.48.28A4.7,4.7,0,0,0,846.21,80.6Zm-16.56-16a3.36,3.36,0,1,1-3.35,3.35A3.35,3.35,0,0,1,829.65,64.58ZM817.81,83.89a3.31,3.31,0,0,1-3.33-3.29c0-2.51,1.65-4.06,4.32-4.06h3.82l-1.34,3.39A3,3,0,0,0,818.36,78a2.41,2.41,0,0,0-2.53,2.4A2.07,2.07,0,0,0,818,82.58a.69.69,0,1,0,0-1.38.72.72,0,0,1-.78-.79,1.05,1.05,0,0,1,1.15-1c1.15,0,1.85.79,1.85,2.12A2.31,2.31,0,0,1,817.81,83.89Zm-.56,10.88-.34-.18s6.39-16.29,9.23-23.51a5,5,0,0,0,1.56,1.16l1.23,2.13Zm11.91-18.23h1l2.36,4.11h-5.71Zm-6,16.2h-2.33V91.06L823.18,87Zm11.46,0h-2.33V84.08a.75.75,0,0,0-.75-.74.74.74,0,0,0-.74.74v8.66h-2.33V84.08a.75.75,0,0,0-.75-.74.74.74,0,0,0-.74.74v8.66h-2.34V84.39L826,82h7.29l1.33,2.33Zm3.82,0h-2.33V87L838.46,91Zm3.92,1.85-.34.18L829.38,72.64a2.48,2.48,0,0,0,.27,0,4.72,4.72,0,0,0,3.51-1.58C836,78.32,842.39,94.59,842.38,94.59ZM839.1,81.51c0-1.33.69-2.12,1.84-2.12a1.06,1.06,0,0,1,1.16,1,.72.72,0,0,1-.79.79.69.69,0,0,0,0,1.38,2.07,2.07,0,0,0,2.17-2.17,2.42,2.42,0,0,0-2.54-2.4A3,3,0,0,0,838,79.92l-1.33-3.38h3.81c2.67,0,4.32,1.55,4.32,4.06a3.31,3.31,0,0,1-3.33,3.29A2.31,2.31,0,0,1,839.1,81.51Z"/><path class="cls-2" d="M788.22,76.11a.35.35,0,1,0-.35-.35A.35.35,0,0,0,788.22,76.11Z"/><path class="cls-2" d="M828.36,35.31a2.37,2.37,0,0,0,.67,1.36,5.13,5.13,0,0,0,1.38.62h0c0-.21,0-.43,0-.65,0-2.5,2.41-4,2.41-4a3,3,0,0,0,.14-.43l-.29-1.64c0-.24,0-.33-.31-.27l-1.41.29a19.09,19.09,0,0,1-2.8,2.68A4.89,4.89,0,0,1,828.36,35.31Zm.84-1.8a15.69,15.69,0,0,0,2.16-2.09l.17-.06.31-.06,0,.12c0,.21.08.42.1.59l0,.07-.06.05a5.85,5.85,0,0,0-2.34,3.38l-.08.37-.15-.34-.05-.11c0-.08,0-.58,0-.58v-.22a4.86,4.86,0,0,0-.11-1l0-.07Z"/><path class="cls-2" d="M833.53,29.33a14.54,14.54,0,0,1,.16,2.49,2.48,2.48,0,0,0,.84-1.47,11,11,0,0,0-.32-2.29c-.08-.11-.93-1.18-1.36-1.18-.19,0-.45.28-.61.74a10.51,10.51,0,0,1-.76,1.28V29C832.11,29,833.42,29,833.53,29.33Z"/><path class="cls-2" d="M779.6,40.51l1.11,1.37a14.59,14.59,0,0,1,1.88-1.3,1.17,1.17,0,0,1,0-.27,1.91,1.91,0,0,1,.11-.64,1.84,1.84,0,0,1,3.14-.57,15.3,15.3,0,0,1,2-.55l-.34-1.72a17.91,17.91,0,0,0-4.17,1.34A17.61,17.61,0,0,0,779.6,40.51Z"/><path class="cls-2" d="M777,37.12,778,38.53a19.83,19.83,0,0,1,2.75-1.87,1.46,1.46,0,0,1,0-.22,1.87,1.87,0,0,1,1.08-1.69,1.84,1.84,0,0,1,.77-.17,1.88,1.88,0,0,1,1.37.61,20.22,20.22,0,0,1,3-.84c-.05-.21-.39-1.72-.39-1.72a22.15,22.15,0,0,0-5.11,1.63A22.4,22.4,0,0,0,777,37.12Z"/><path class="cls-2" d="M779,32.74a1,1,0,0,1,0-.18A1.86,1.86,0,0,1,780,30.88a1.92,1.92,0,0,1,.78-.17,1.81,1.81,0,0,1,1.33.57A24,24,0,0,1,786,30.15c-.18-.72-.3-1.13-.37-1.36a2.09,2.09,0,0,0-.34,0,7.7,7.7,0,0,0-1.76.27l-.28.07a6.46,6.46,0,0,1-1.81.31,2.79,2.79,0,0,1-2.21-.94c-.26-.3-.35-.32-.37-.32a.56.56,0,0,0-.19.07c-.19.09-.19.09-.19.24a2.47,2.47,0,0,0,0,.34,3.28,3.28,0,0,1,0,.43c0,1.6-1.45,2.59-2.15,3.07l-.22.16a5.61,5.61,0,0,0-1.54,1.45c.13.21.38.56.81,1.16A25,25,0,0,1,779,32.74Z"/><path class="cls-2" d="M817.87,33.81l2.16.59a5.9,5.9,0,0,1,2.22-3.27,25.52,25.52,0,0,1-2.17-2.8c-.94.4-1.92.75-2.34.89a14.53,14.53,0,0,1,.3,3.05A6.82,6.82,0,0,1,817.87,33.81Zm1.93-4.51c.47.66.93,1.25,1.34,1.74a5.71,5.71,0,0,0-1.62,2.4l-.75-.21a7.73,7.73,0,0,0,.06-1,16.28,16.28,0,0,0-.22-2.52Z"/><path class="cls-2" d="M799.49,31.13a5.85,5.85,0,0,1,2.21,3.27l2.17-.59a6.17,6.17,0,0,1-.18-1.54,14.3,14.3,0,0,1,.31-3.05c-.42-.14-1.4-.49-2.35-.89A25.73,25.73,0,0,1,799.49,31.13Zm3.64-1.38a15.14,15.14,0,0,0-.23,2.52,7.75,7.75,0,0,0,.07,1l-.75.21A5.82,5.82,0,0,0,800.6,31c.41-.49.87-1.08,1.34-1.74Z"/><path class="cls-2" d="M800.66,39.89a22.22,22.22,0,0,0,5.74-1.81,10.21,10.21,0,0,1-2-2.84c-.37.12-1.09.32-2.47.68A6.33,6.33,0,0,1,800.66,39.89Zm2-3.35,1.3-.36a10.09,10.09,0,0,0,1.14,1.64,20.13,20.13,0,0,1-2.91.91A7.19,7.19,0,0,0,802.66,36.54Z"/><path class="cls-2" d="M809,38.24a19.45,19.45,0,0,0,1.87,1.12,14.25,14.25,0,0,0,1.87-1.12,7.7,7.7,0,0,1-1.87-2.19A7.73,7.73,0,0,1,809,38.24Zm1.87-.78c.18.23.37.45.58.67l-.58.34-.59-.34A7.44,7.44,0,0,0,810.87,37.46Z"/><path class="cls-2" d="M801.1,26.35a7.7,7.7,0,0,0,1.13-3.23c0-.55-.46-1.56-1.22-1.56s-1.52,1.11-1.52,2.29A3.12,3.12,0,0,0,801.1,26.35Zm-.09-4c.24,0,.43.57.43.77a4.86,4.86,0,0,1-.6,2,1.76,1.76,0,0,1-.56-1.28C800.28,23.08,800.72,22.35,801,22.35Z"/><path class="cls-2" d="M821.07,39.89a6.45,6.45,0,0,1-1.23-4c-1.37-.36-2.09-.56-2.46-.68a10,10,0,0,1-2,2.84A22.37,22.37,0,0,0,821.07,39.89Zm-3.29-3.71,1.3.36a7.19,7.19,0,0,0,.47,2.19,20.13,20.13,0,0,1-2.91-.91A10.09,10.09,0,0,0,817.78,36.18Z"/><path class="cls-2" d="M806.87,33l.24-.09s0-.06,0-.08a.76.76,0,0,1,.57-.74,1.2,1.2,0,0,1,.2,0,.78.78,0,0,1,.73.57,1.61,1.61,0,0,1-1.24,1.81l-1.5.44a8.69,8.69,0,0,0,1.91,2.41A4.65,4.65,0,0,0,810,33.49c0-2-2.15-2.94-4.55-3.78a13.55,13.55,0,0,0-.23,2.56,5.43,5.43,0,0,0,.12,1.13Zm2.44.46a3.48,3.48,0,0,1-1.48,2.74,8,8,0,0,1-.72-.86C809.1,34.78,809.31,33.42,809.31,33.42Zm-3.21-2.63c.9.3,1.81.67,1.81.67a1.64,1.64,0,0,0-1.51.81l-.38.11s0-.08,0-.11A14.17,14.17,0,0,1,806.1,30.79Z"/><path class="cls-2" d="M822.25,23.85c0-1.18-.74-2.29-1.52-2.29s-1.23,1-1.23,1.56a7.69,7.69,0,0,0,1.14,3.23A3.14,3.14,0,0,0,822.25,23.85Zm-1.52-1.5c.29,0,.72.73.72,1.5a1.74,1.74,0,0,1-.55,1.28,4.86,4.86,0,0,1-.6-2C820.3,22.92,820.49,22.35,820.73,22.35Z"/><path class="cls-2" d="M814,37.25a8.69,8.69,0,0,0,1.91-2.41l-1.52-.44a1.62,1.62,0,0,1-1.22-1.81.79.79,0,0,1,.74-.57,1.08,1.08,0,0,1,.19,0,.76.76,0,0,1,.57.74v.08a1.57,1.57,0,0,0,.23.09l1.53.44a4.84,4.84,0,0,0,.13-1.13,13.55,13.55,0,0,0-.24-2.56c-2.4.84-4.55,1.77-4.55,3.78A4.65,4.65,0,0,0,814,37.25Zm1.67-6.46a14.21,14.21,0,0,1,.08,1.48s0,.07,0,.11l-.38-.11a1.64,1.64,0,0,0-1.51-.81S814.72,31.09,815.63,30.79Zm-3.22,2.63s.22,1.36,2.21,1.88a8.13,8.13,0,0,1-.73.86A3.52,3.52,0,0,1,812.41,33.42Z"/><polygon class="cls-2" points="840.25 39.14 840.55 36.72 842.97 36.31 840.74 35.24 841.06 32.82 839.36 34.6 837.15 33.58 837.16 33.6 838.31 35.7 836.61 37.47 839.05 37.01 840.25 39.14"/><path class="cls-2" d="M832.59,35.35a3.16,3.16,0,0,0,1,3.82l1.11.81a7.2,7.2,0,0,1,1.84,1.56l.17.23.49,0a9.09,9.09,0,0,1,2.21.43l1.27.34a4.43,4.43,0,0,0,.8.08,3.18,3.18,0,0,0,2.84-1.76,3.87,3.87,0,0,0,.29-1.66l0-.9a7.09,7.09,0,0,1,.15-1.54c0-.11,0-.22.08-.33h0l.12-.31a3.75,3.75,0,0,1,1.75-1.58l.31-.26L846.84,33l-.38-.07a5.18,5.18,0,0,1-1.33-.43c-.38-.17-1.8-1.07-1.8-2.25a1.1,1.1,0,0,1,0-.24,3.67,3.67,0,0,0,0-.39.85.85,0,0,0-.59-.85,1,1,0,0,0-.45-.13,1.18,1.18,0,0,0-.85.52,1.68,1.68,0,0,1-1.36.56,5.8,5.8,0,0,1-1.47-.26,4.49,4.49,0,0,1-1.36-.8l-.3-.26-.33.21-.51.3-.32.19.07.36a5.79,5.79,0,0,1,.15,1.2,2.66,2.66,0,0,1-.22,1.12l-.16.31a2.2,2.2,0,0,0-.17.25,7.48,7.48,0,0,1-1.5,1.44A4.63,4.63,0,0,0,832.59,35.35Zm3.87-2.76a4.53,4.53,0,0,0,.42-3l0,0a5.52,5.52,0,0,0,1.45.79,6.62,6.62,0,0,0,1.77.31,2.55,2.55,0,0,0,2.05-.88c.14-.15.19-.2.22-.21a.56.56,0,0,1,0,.33,1.58,1.58,0,0,0,0,.37c0,1.65,1.68,2.79,2.33,3.09a6.58,6.58,0,0,0,1.28.44v.07a4,4,0,0,0-1.92,2c-.87,1.77-.18,3.82-.62,4.63a2.22,2.22,0,0,1-2,1.23,2.6,2.6,0,0,1-.61-.07l-1.23-.32a9.51,9.51,0,0,0-2.44-.46h0a9.13,9.13,0,0,0-1.94-1.61l-1.08-.79a2.13,2.13,0,0,1-.73-2.7C834.08,34.6,835.35,34.19,836.46,32.59Z"/><path class="cls-2" d="M795.78,37.92c.67,0,.59-.74.85-1s1-.16,1-.87-.75-.61-1-.86-.13-1-.85-1c-.44,0-.68.34-.68.84v2C795.1,37.57,795.33,37.92,795.78,37.92Z"/><path class="cls-2" d="M773.32,45.16c-.38-.32-.8-.37-1.08,0-.43.52.2.93.23,1.3s-.52.87,0,1.32,1-.19,1.29-.23.87.55,1.33,0c.28-.34.16-.74-.23-1.06Z"/><path class="cls-2" d="M857.91,64.85a3.89,3.89,0,0,0,3-3.79c0-1.16-.47-2.84-2.72-4.23a7.22,7.22,0,0,0-.88-.48A3.39,3.39,0,0,0,859.8,53a1.89,1.89,0,0,0-1.9-1.9,1.85,1.85,0,0,0-1.34.56A1.83,1.83,0,0,0,856,52.8a7,7,0,0,1-2.37.25,6.78,6.78,0,0,1-1.82-.28,12.57,12.57,0,0,0,1.85-1.47c.4-.39,1.5-.69,2-1.51a16.58,16.58,0,0,0,2.22-5.29,11.61,11.61,0,0,0,.35-2.73,10.6,10.6,0,0,0-.18-1.88l-.11-.85c-.06-.68-.22-2.46-1.77-3l-2.79-4.19c-.08-.13-.22-.17-.32-.06l-1.16,1.35a3.23,3.23,0,0,0-1.15.25,2.33,2.33,0,0,0-.26-.28,1.85,1.85,0,0,0-.27-.19l-.49-3.1-.34.06-1.65.28a3.12,3.12,0,0,1-.94-.31,2.5,2.5,0,0,1-.52-.41,3.42,3.42,0,0,0,0-.45,3.62,3.62,0,0,0-6.27-2.47c-.12,0-.33-.06-.67-.15a1.83,1.83,0,0,1-.73-.44l-1-1.81-2.5,1.5c-1.49-1.23-2.17-1.64-3.11-1.28a2.61,2.61,0,0,0-1,.78,1.56,1.56,0,0,0,.17-.63,1.79,1.79,0,0,0-1.78-1.82c-.13-.07-.25-.15-.38-.21-.21-.52-.81-1.95-.87-2.09a.26.26,0,0,0-.39-.07l-3,2.38a4.41,4.41,0,0,0-3.24-3.48V16.38h-1.44v-.07c0-3.88-2.63-6.7-6.26-6.7a5,5,0,0,0-.58.06V7.12H816V2.8h-2.76V0h-4.48V2.8H806V7.12h2.76V9.71a4.84,4.84,0,0,0-.86-.1c-3.68,0-6.26,2.75-6.25,6.77H800v2.86a4.62,4.62,0,0,0-3.13,4.05l-1.31-1.1L793,20.09l-.27-.22L787.62,26a4.27,4.27,0,0,0-2.36-.61,21,21,0,0,0-3.73.63,3.56,3.56,0,0,0-4.3-.87,3.47,3.47,0,0,0-2.15,3.33,4.84,4.84,0,0,0,0,.53,4,4,0,0,1-.64.49s-.3.21-.3.22c-1.83,1.33-2.84,2.65-3,3.95h-8v7.4h5.55a6.89,6.89,0,0,0-2.48,5.41A7.46,7.46,0,0,0,770,52.75a6.34,6.34,0,0,1-1.87.3,7.2,7.2,0,0,1-2.36-.25A1.9,1.9,0,0,0,762,53a3.55,3.55,0,0,0,2.46,3.35c-.27.12-3.58,1.57-3.58,4.68a3.84,3.84,0,0,0,3,3.82,57.24,57.24,0,1,0,94.06,0ZM854.36,47a6,6,0,0,1-2.22,4.11,6.4,6.4,0,0,1-3.43,1.48,10,10,0,0,0,4.94,1.57c3.09,0,3.49-.63,3.49-1.17a.76.76,0,0,1,.22-.54.79.79,0,0,1,.54-.22.76.76,0,0,1,.76.76c0,2.69-3.5,2.69-5,2.69l-.57,0,.91.47,2.2,1a8.58,8.58,0,0,1,1.4.68A3.88,3.88,0,0,1,859.77,61a2.66,2.66,0,0,1-2.47,2.75,2.31,2.31,0,0,1-2.3-2.51.75.75,0,0,1,.76-.76.76.76,0,0,1,.76.76c0,.78.46,1,.73,1a1.18,1.18,0,0,0,1-1.24c0-.72-.46-1.34-1.45-1.95a7.21,7.21,0,0,0-1.18-.58l-2.27-1s-2.29-1.18-2.66-1.37h0l0,0a31.27,31.27,0,0,1-4.36-3.3l-.58-.45.15-.12s1,.35,1.29,0,.09-1.27.09-1.27l.37.07.19,0,.32,0a5.38,5.38,0,0,0,3.07-1.1,4.49,4.49,0,0,0,1.69-3.08c0-.14,0-.28,0-.41a4.21,4.21,0,0,0-.89-2.69,1.11,1.11,0,0,1-.31-.73.7.7,0,0,1,.17-.47.69.69,0,0,1,.5-.23,1.16,1.16,0,0,1,.8.45,5.56,5.56,0,0,1,1.25,3.65A5.43,5.43,0,0,1,854.36,47Zm.06,13.29c-.78-.92-1.09-1.24-1.92-2.11l2.44,1c.46.18.62.37.56.37A1.35,1.35,0,0,0,854.42,60.31ZM825.55,23.6l.79.14-.21-.62.63.32.07-.79.49.49.19-.71.48,1.15a2.12,2.12,0,0,1,.88.4c.16,0,.82.05.92.4.17.59-1.1.82-1.1,1s.34.33.63.54a7.68,7.68,0,0,1,1.52,1.53c.14-.17.55-.66.68-.77s.77-.91,1-1c.45-.17,1,.5,1.3.71a4.73,4.73,0,0,1,1.07,1l2.25-1.35a3.4,3.4,0,0,0,3,1.89,1.09,1.09,0,0,0,.77-.23,2.28,2.28,0,0,1,4,1.89c-.09.56.91,1.34,1.33,1.54a3.54,3.54,0,0,0,1.68.42l.69-.12.54,3.41c-2.69,1.46-2.82,1.44-2.82,4.24a6.37,6.37,0,0,1-.42,2.84,4.68,4.68,0,0,1-1.14,1.48l-.17.11a1.42,1.42,0,0,1-.06.31l.71,1.27a10.8,10.8,0,0,0,1.59-1.41,12.67,12.67,0,0,0,0-1.79,6.6,6.6,0,0,0,.35-2.76c0-1.94.12-2.31.81-2.77a11.12,11.12,0,0,1,1.62-1c-.16.75-1.22,1.11-1.22,1.48a.92.92,0,0,0,.32.69l.2-.17a.85.85,0,0,1,.68-.19,2.37,2.37,0,0,1,1.16-.63,2.89,2.89,0,0,1,1.16.28l.18-.26a2,2,0,0,1-.35-.81c0-.31-.28-.6-.85-.41L851,35a.76.76,0,0,1,.78-.35,1.15,1.15,0,0,1,.71,0l.66-.78.11.66.45,0-.08.55.5.08-.12.42.48.27-.91.3a1.85,1.85,0,0,1-.79,1.64.74.74,0,0,1,.08.34,1.2,1.2,0,0,1-.95,1.18l-.11.83a1.61,1.61,0,0,0,.66.26c1.8-.08,1.64-3,2.8-3s1.21,1.07,1.28,1.87a11.19,11.19,0,0,1,0,5,14.66,14.66,0,0,1-1.61,4.1,6.58,6.58,0,0,0,.22-1.19l0-.64a6.28,6.28,0,0,0-1.46-4.18,1.86,1.86,0,0,0-1.38-.71,1.52,1.52,0,0,0-1.1.49,1.47,1.47,0,0,0-.37,1,1.9,1.9,0,0,0,.51,1.26,3.45,3.45,0,0,1,.7,2.16l0,.34a3.7,3.7,0,0,1-1.27,2.41,1,1,0,0,1,0-.19,11.46,11.46,0,0,1,.46-1.4,5.25,5.25,0,0,0,.11-.9,6.81,6.81,0,0,1,.38-1.29c-.37.2-1.14,1.11-1.67,1.13h-.38c0,.27,0,1,0,1.19s-.44,2.33-.45,2.35h0l-.72.14h0l-.58-.47.37-2-.6,1.35s-.19-.32-.38-.59a.34.34,0,0,0-.35-.16l-1.07,1.89a3.39,3.39,0,0,1,.66,1.21l-.23.1c-.06-.1-.41-.67-.83-.66-.25,0-.71.51-.77.61l-.22-.11a3.19,3.19,0,0,1,.31-.68,1.34,1.34,0,0,0-.46-.06,3.59,3.59,0,0,0-.89.32l-.07-.22a2.09,2.09,0,0,1,.93-.51c-.06-.08-.15-.17-.24-.17l-.53,0v-.19a1.38,1.38,0,0,1,.51-.18c.51,0,.74.3,1.26.29l1-2c0-.81.37-.88.34-1.48,0-.23.05-.43,0-.42s-1.21.4-1.48.41-.19-.7-.22-.9l-.68-1.17a2.23,2.23,0,0,1-1.33.13l-.11-.16s0,0,0,0a5,5,0,0,1-2.29,0h0L838.77,44c-.44-.12-.89-.24-1.29-.31a6,6,0,0,0-1.42.87.62.62,0,0,1-.61.13.55.55,0,0,1-.29-.55,3,3,0,0,0-.21-1.58,10.54,10.54,0,0,0-1.1-.86l-1.48-1-.1-.07a4.91,4.91,0,0,1-1.6-2.24h-.11l-.29-.32-1-.14a4.81,4.81,0,0,0-1.63-1.21l-.25-.29a2,2,0,0,0,0-.84A1,1,0,0,0,827,35c-.15.19-.57.77-.9,1.27a6.34,6.34,0,0,1-1.15,1.22,16.11,16.11,0,0,1,.31,2.18,4.1,4.1,0,0,1,.36.46,12,12,0,0,1,.74.95.24.24,0,0,1-.15.34,1,1,0,0,1-.79-.23l-.22-.14-.13-.41-.49-.47a8.64,8.64,0,0,0-.37-1.9,6,6,0,0,0-.37-.81l.06-.26c.31-.41,1-1.4.83-1.89a1.6,1.6,0,0,0-.45-.52,2.45,2.45,0,0,1-.52-.62.79.79,0,0,1-1.06-.4.69.69,0,0,1,0-.45c.09-.28.39-.35.35,0a.41.41,0,0,0,0,.19c.06.19.36.11.55.05a2.46,2.46,0,0,1,.3-1.31A3.67,3.67,0,0,1,825,31.12a8.52,8.52,0,0,1,.85-.88c.24-.22.51-.45.83-.69a5.59,5.59,0,0,0,1.57-1.72l-.16-.79a3.71,3.71,0,0,1-1.21-1.59,2,2,0,0,1-.07-.3c-.39,0-1.51-.3-1.66-.8l1.05-.14ZM840.16,46c-.68-.88.94-1.27,1.21-.93.81,1.05,1.77,2.28,2.83,3.48l.35.41H844a2.25,2.25,0,0,0-.89.28l-.17.1-.19-.12C841.77,48.07,840.86,46.91,840.16,46Zm1.61,3.27a56.89,56.89,0,0,0-6.62-3.67,2,2,0,0,0,1.67-.42,3.78,3.78,0,0,1,.68-.5l.71.17c.36.39,1,1.16,1.39,1.73C840.2,47.35,840.92,48.28,841.77,49.28Zm1-3.68a3.21,3.21,0,0,0,1,0c.07.14.11.19.16.28a1.75,1.75,0,0,0,.43,1.32l.87.32s-.19.26-.38.52C844.06,47.21,843.37,46.36,842.78,45.6Zm-15.76-4a1.11,1.11,0,0,0,0-.85v-.34s3.18,0,4.05,0,1.13,1.44.31,1.46l-4.52.1Zm-.51-2-.31-.39c-.05-.5-.11-1-.19-1.4a1.25,1.25,0,0,0,0-.46l.63-.77,0,.45.39.47.3.06a1.23,1.23,0,0,1,.3.17l1.12,1,.93.16a.12.12,0,0,0,0,0,6.11,6.11,0,0,0,.38.65C829.11,39.66,827.85,39.68,826.51,39.65Zm4.75,3.05c.72,0,1.69-.07,2.22,0,.21.15.4.29.58.44a5.67,5.67,0,0,1,.05,1.06,1.63,1.63,0,0,0,.77,1.32,56.59,56.59,0,0,0-7-2.71C829.15,42.77,830.32,42.73,831.26,42.7Zm-8-4a3.78,3.78,0,0,1-1.05-2.64v0a4.44,4.44,0,0,1,.16-1.11,1.68,1.68,0,0,0,.91.3l.38.38a6.8,6.8,0,0,1-.74,1.13l-.19.86A6.2,6.2,0,0,1,823.21,38.71ZM826,26a4.72,4.72,0,0,0,1.13,1.52v.05a15.51,15.51,0,0,1-1.68,1.57,6.38,6.38,0,0,0-1.61.29c-.33-.4-.81-1-1.32-1.68a5.34,5.34,0,0,0,2-2.57A3,3,0,0,0,826,26ZM807.93,11a4.93,4.93,0,0,1,2.16.47V5.83h-2.77V4.09h2.77V1.29H812v2.8h2.76V5.83H812v5.54a5,5,0,0,1,1.87-.36c2.86,0,4.86,2.18,4.86,5.3,0,0,0,.05,0,.07h-1.81c-.07-1.74-1.11-3.55-3.33-3.55a3.31,3.31,0,0,0-2.67,1.58,3.13,3.13,0,0,0-2.67-1.58c-2.38,0-3.27,1.8-3.33,3.55h-1.81v-.07C803.08,13.14,805,11,807.93,11ZM801,17.42h19.49v1.5H801Zm9.87,8.85c-2.24,0-5.22-3-6.79-6.31h2c1.27,2.4,3.27,4.49,4.81,4.49s3.55-2.09,4.81-4.49h2C816.12,23.3,813.14,26.27,810.89,26.27Zm7.28.33-.37.14a13.52,13.52,0,0,0-1.23-2.39c.22-.26.44-.53.65-.81A8.72,8.72,0,0,0,818.17,26.6Zm-3.92-.1a9.26,9.26,0,0,1,.63,1.26,10.89,10.89,0,0,0-4,2.29,11.06,11.06,0,0,0-4-2.29,9,9,0,0,1,.64-1.28,5.21,5.21,0,0,0,6.75,0Zm-9.07-2.18a13.86,13.86,0,0,0-1.25,2.42l-.36-.14a8.78,8.78,0,0,0,.95-3.12ZM801,20a3,3,0,0,1,2.74,3.08,8.84,8.84,0,0,1-1.28,3.9c.62.26,1.27.51,1.93.73A14.25,14.25,0,0,1,806,24.54l.18-.25.21.22c.24.25.49.49.74.71l.15.14-.11.18a12.77,12.77,0,0,0-1.32,2.69c1.94.67,4,1.52,5,3,1.07-1.58,3.08-2.31,5-3a13.29,13.29,0,0,0-1.3-2.67l-.11-.18.15-.14c.25-.22.5-.46.75-.71l.21-.21.16.25a13.67,13.67,0,0,1,1.58,3.17c.71-.23,1.52-.56,1.93-.73a9,9,0,0,1-1.29-3.9A3,3,0,0,1,820.73,20c1.65,0,3,1.74,3,3.81a4.24,4.24,0,0,1-2.33,3.76,27.73,27.73,0,0,0,2.18,2.76c.09,0,1.52-.44,1.52-.44l-.87.73A3.22,3.22,0,0,0,823,32.29h-.16a1.18,1.18,0,0,0-1,1.26,1,1,0,0,0,.06.23l0,.09,0,.09a4.79,4.79,0,0,0-.48,2.11,4.4,4.4,0,0,0,2.21,3.83l.11.05.09.59c.12.12.51.45.51.45l.28.58.31.29-.68,0c-6.33-.54-9.43-2.24-10.12-2.66-.65.45-2.59,1.77-3.22,1.77s-2.59-1.33-3.22-1.78A28,28,0,0,1,794.73,42c-1.2,0-2.63,0-3.7-.06-.38,0-.47-1.48,0-1.46h4.57c3.5,0,4.74-2.27,4.74-4.39a4.54,4.54,0,0,0-1.27-3.27,4.45,4.45,0,0,0-2.94-1.32,6.14,6.14,0,0,0-4.54,1.9.76.76,0,0,1-1.17-1A7.67,7.67,0,0,1,796.17,30a5.21,5.21,0,0,1,2,.41,27.44,27.44,0,0,0,2.15-2.75A4.49,4.49,0,0,1,798,23.85C798,21.78,799.36,20,801,20Zm-14.42,24a.52.52,0,0,1-.9.42,3,3,0,0,0-1.54-.91,9.2,9.2,0,0,1,2.76-1.3A3.1,3.1,0,0,0,786.59,44.08Zm.06,1.51a56.28,56.28,0,0,0-6.68,3.7c.86-1,1.59-2,2.16-2.7a22.28,22.28,0,0,1,1.62-2c.41-.15,1,.4,1.17.55A1.54,1.54,0,0,0,786.65,45.59Zm1-1.44c0-.07,0-.36,0-.47,0-.33.06-.84.35-1a19.69,19.69,0,0,1,2.53,0c.94,0,2.11.07,3.41.07a57.45,57.45,0,0,0-7.07,2.74A1.56,1.56,0,0,0,787.63,44.15ZM789.76,35l0-.08h3.67a2.15,2.15,0,0,1,0-.23,2.27,2.27,0,0,1,4.41-.77,2.25,2.25,0,0,1,0,4.23,2.27,2.27,0,0,1-4.41-.77,1.5,1.5,0,0,1,0-.22h-3l0-.06a.71.71,0,0,0-.12-.15A1.65,1.65,0,0,1,789.76,35Zm-.16-2.66-.33-1.44,2-2.33,1.53,1.28A6.33,6.33,0,0,0,789.6,32.35Zm3.85,7.32c-.89,0-1.7,0-2.41-.06,0-.4-.08-.67-.19-1.28h1.8a3.2,3.2,0,0,0,.8,1.33Zm3.84-14.25a5.24,5.24,0,0,0,1.9,2.37c-.51.69-1,1.28-1.32,1.67a6.19,6.19,0,0,0-1.7-.29,8.93,8.93,0,0,0-2.23.29ZM793,21.81l1.53,1.28-.39.46,1,.82.39-.46,1,.89L795,26.59l-1-.88.39-.46-1-.82-1.14,1.36,1,.82.38-.46,1,.88-1.5,1.79-1-.88.38-.46-1-.82-2.59,3.09s0-.06-.07-.09a2,2,0,0,1-.82-2Zm-18,9,.27-.19c.55-.37,1.36-.94,1.27-1.53a2.36,2.36,0,0,1,4.2-2,.89.89,0,0,0,.69.25c.88,0,2.25-.65,3.93-.65,1,0,1.78.31,2,1,1.36,3.92,2.8,12.83,2.8,12.85a15.17,15.17,0,0,0-5.1,1.33A18.79,18.79,0,0,0,780.73,45s-5.91-6.88-8-10.41C772.1,33.61,773,32.3,775,30.85Zm2.43,14.57,1.15-1.37c.41.48.58.69.85,1-.45.58-.95,1.21-1.51,1.89v0A3.42,3.42,0,0,0,777.4,45.42Zm-1.23,0A2.1,2.1,0,0,1,777,47a2.28,2.28,0,0,1-2.1,2.47,4.93,4.93,0,0,1-1-.17,2.6,2.6,0,0,1-1.1.33,2.29,2.29,0,0,1-2.29-2.22,3.45,3.45,0,0,1,.15-.82,3.7,3.7,0,0,1-.32-.93,2.3,2.3,0,0,1,2.08-2.48h.2a2.28,2.28,0,0,1,1.47.54l.15.16,2.23-2.7a1.9,1.9,0,0,1,1.06.57,2.29,2.29,0,0,1,.42,1.16l-2,2.41Zm-1.31-6a1.53,1.53,0,0,0-.7-.19,8.56,8.56,0,0,0-3.33.89v-2h3Zm-7.41.3V38.33h.6V37.05h-1.77v1.28h.6V39.7h-2.34V38.33h.6V37.05h-.6v-2h7.64a2,2,0,0,1,1.17,2H769.2v1.28h.59V39.7ZM762,61a3.86,3.86,0,0,1,2.17-3.22,8.06,8.06,0,0,1,1.42-.69l2.17-1,.91-.48-.53,0c-3.43,0-5-.85-5-2.69a.77.77,0,0,1,.77-.76.76.76,0,0,1,.76.76.71.71,0,0,0,.2.54c.63.63,2.63.63,3.28.63A10,10,0,0,0,773,52.61a6.4,6.4,0,0,1-3.43-1.48,6,6,0,0,1-1-8.33,7.77,7.77,0,0,1,5.54-2.8.77.77,0,0,1,.76.77.77.77,0,0,1-.76.76,6.23,6.23,0,0,0-4.38,2.25,4.44,4.44,0,0,0,.81,6.18,4.82,4.82,0,0,0,2.91,1.13,4.33,4.33,0,0,0,3.32-1.79l.2-.16c1.14-1.24,2.66-3.12,3-3.63s1.64.35,1.12,1a50.47,50.47,0,0,1-5,5.61c-.28.27-.28.27-.32.29a30.74,30.74,0,0,1-4.74,3.67c-2.08,1.07-2.62,1.35-2.78,1.42h0l-2.24,1a6,6,0,0,0-1.19.58c-1,.64-1.5,1.29-1.45,2.06a1.15,1.15,0,0,0,.89,1.12c.72,0,.83-.62.83-1a.73.73,0,0,1,.23-.54.72.72,0,0,1,.53-.22.76.76,0,0,1,.76.76,2.34,2.34,0,0,1-2.43,2.51A2.68,2.68,0,0,1,762,61Zm7.74-14.16v0ZM769,58.5c-.83.86-.78.88-1.56,1.8a1.14,1.14,0,0,0-.18-.25,1.22,1.22,0,0,0-.92-.45c-.22,0,.12-.16.46-.3Zm42.24,94.8a55.83,55.83,0,0,1-45.57-88.59,3.3,3.3,0,0,0,1.12-.68,3.5,3.5,0,0,0,1.06-2.14,55.78,55.78,0,0,1,86.11,0,3.29,3.29,0,0,0,2.19,2.83A55.82,55.82,0,0,1,811.2,153.3Z"/><path class="cls-2" d="M853.3,97.48A42.33,42.33,0,1,0,811,139.8,42.38,42.38,0,0,0,853.3,97.48Zm-43,40.93A41,41,0,0,1,770,98H810.3Zm0-41.75H770.05A41,41,0,0,1,810.3,56.54Zm1.39-40.12a41,41,0,0,1,40.22,40.12H811.69Zm0,81.87V98h40.22A41,41,0,0,1,811.69,138.41Z"/><path class="cls-2" d="M777.18,128.16c-.16-.17-.51-.64-.91-1.1-.08-.09-.19-.12-.26-.06s0,.15,0,.22c.49.56.49.68-.56,1.59l-3.43,3c-.09.08-.14.1-.39-.18a1.41,1.41,0,0,1,.33-2.16,1.33,1.33,0,0,1,1.88-.06c.15.18.23.18.3.13s-.07-.28-.12-.35a2.18,2.18,0,0,0-3.2-.27c-.85.74-.56,1.85.21,2.74l.91,1c.16.2.52.64.84,1,.12.14.2.15.25.1s.06-.13,0-.23c-.38-.43-.41-.61.06-1l3.33-2.91c.87-.75,1-.75,1.36-.39.07.09.14.14.21.08s.06-.15,0-.26C777.73,128.73,777.32,128.32,777.18,128.16Z"/><path class="cls-2" d="M772.09,121.1a3.64,3.64,0,0,0-5.21-1.32c-1.79,1.08-2.17,3-1,5a3.56,3.56,0,0,0,5.06,1.41A3.52,3.52,0,0,0,772.09,121.1Zm-5.61,3.62c-.76-1.26-.31-2.9,1.41-3.94,2.21-1.35,3.22-.25,3.55.28.89,1.48.17,3.12-1.42,4.09C768.12,126.32,767,125.59,766.48,124.72Z"/><path class="cls-2" d="M769,116.45c0,.12.1.17.17.14s.11-.13,0-.27c-.16-.45-.33-.85-.35-.92s-.17-.53-.36-1.09c-.06-.15-.14-.22-.23-.19s-.07.09,0,.22c.19.52.13.79-.7,1.12l-3.47,1.31,3-6.23a.67.67,0,0,0,.08-.39c0-.09-.15-.13-.36-.05L761.31,112c-.55.19-.74.17-.9-.27,0-.14-.11-.19-.18-.17s-.09.15,0,.29c.15.42.31.74.34.83s.18.61.34,1.06c.07.17.14.26.22.23s.09-.12,0-.22c-.21-.59-.12-.75.53-1l3.74-1.44-3,6.14a.84.84,0,0,0-.11.53c0,.11.18.11.37,0l5.27-1.81C768.75,115.86,768.83,116,769,116.45Z"/><path class="cls-2" d="M760.86,109.39c.09,0,.19,0,.16-.16s-.08-.12-.16-.12c-.34,0-.57-.19-.71-.89l-.26-1.29,4.45-.77c1.42-.25,1.55-.19,1.64.32,0,.11.06.19.15.16s.12-.09.1-.24c-.06-.36-.19-.93-.23-1.14s-.11-.83-.21-1.42c0-.13-.09-.21-.18-.19s-.1.11-.08.2c.12.72.05.83-1.45,1.09l-4.4.77-.16-1.1c-.13-.8,0-1,.39-1.13.16,0,.2-.1.18-.18s-.08-.1-.21-.09l-1,.15c-.18,0-.24.08-.22.16a4.06,4.06,0,0,1,.24.85l.71,4a3.1,3.1,0,0,1,0,.84c0,.08.07.1.23.12A7.33,7.33,0,0,0,760.86,109.39Z"/><path class="cls-2" d="M758.81,101.38c0-.52.12-.58.46-.62s.54,0,1.92-.12l1.59-.08c.87,0,1.59-.08,2,0s.47.15.49.53c0,.11,0,.19.12.19s.14-.08.13-.24c0-.36-.08-.95-.09-1.15s0-.83,0-1.43c0-.16-.07-.23-.16-.22s-.12.1-.11.2c0,.51,0,.77-.39.81s-1.1.09-2,.13l-1.59.08c-1.38.07-1.63.09-1.91.08s-.51-.13-.53-.55c0-.08,0-.19-.16-.18s-.1.09-.09.25c0,.35.06.88.08,1.11s0,.84,0,1.19c0,.19.06.27.13.27S758.81,101.46,758.81,101.38Z"/><path class="cls-2" d="M758.54,96c.07,0,.12-.06.13-.19,0-.65.16-.73,1.08-.66l4.06.28c1.27.09,1.31.22,1.27.69,0,.1,0,.18.11.19s.14-.07.15-.22c0-.36,0-.94.06-1.17s.08-.81.12-1.4c0-.17,0-.24-.12-.25s-.12.08-.13.19c0,.68-.07.82-1.38.73l-1.45-.1s0,0,0-.07.07-1.07.11-1.3a.53.53,0,0,1,.61-.44.15.15,0,0,0,.18-.11c0-.12-.1-.14-.21-.14a8.73,8.73,0,0,1-1.22-.2c-.06,0-.12,0-.13.09s.26.15.23.58L761.88,94s0,.06,0,.06l-2.64-.18s-.07,0-.07-.07l.12-1.38c0-.34.17-.5.29-.54a.53.53,0,0,1,.33,0c.13,0,.2,0,.2-.12s-.06-.13-.16-.15-.64-.08-.73-.1l-.34-.08-.06,0c-.07,0-.14,0-.14.1a.24.24,0,0,0,0,.1v0a1.67,1.67,0,0,1,0,.39c0,.21-.13,2.07-.16,2.42s-.08.83-.11,1.31C758.42,95.92,758.45,96,758.54,96Z"/><path class="cls-2" d="M759.35,89c.1-.5.25-.54.59-.5s.54.09,1.9.34l1.57.3c.86.16,1.56.3,1.91.41s.43.26.36.63c0,.1,0,.19.07.21s.15-.05.18-.2c.06-.36.14-.94.18-1.14s.2-.81.31-1.4c0-.15,0-.24-.1-.25s-.14.07-.16.17c-.1.5-.2.74-.57.69s-1.09-.17-2-.33l-1.57-.3c-1.35-.26-1.61-.29-1.88-.37s-.46-.25-.38-.66a.16.16,0,0,0-.11-.22c-.07,0-.12.07-.15.22-.07.35-.14.88-.19,1.11s-.18.82-.25,1.17c0,.18,0,.27.07.28S759.34,89.06,759.35,89Z"/><path class="cls-2" d="M763.34,84.56c2.45.87,4.19-.7,4.93-2.87a5.75,5.75,0,0,0,.36-1.64.43.43,0,0,0-.19-.35,8.36,8.36,0,0,0-1.1-.59c-.09,0-.17,0-.2.06s0,.13.14.23c.65.45.8.95.38,2.18-.53,1.53-1.94,2.34-3.95,1.65-1.6-.61-2.44-1.68-1.88-3.33.35-1,1.1-1.91,2-1.6.15,0,.24,0,.28-.06s0-.16-.19-.22-.64-.24-.92-.35-.39-.19-.46-.21-.14,0-.19.12a15.37,15.37,0,0,0-1,2C760.68,81.67,761.24,83.84,763.34,84.56Z"/><path class="cls-2" d="M763.76,74.93c.23-.45.39-.44.7-.31s.5.24,1.73.85l1.42.73a19.38,19.38,0,0,1,1.73.93c.34.21.33.36.16.7,0,.09-.07.18,0,.22s.16,0,.23-.14c.16-.33.4-.86.5-1s.41-.72.68-1.25c.07-.14.05-.23,0-.27s-.15,0-.2.12c-.23.45-.4.65-.73.51s-1-.47-1.79-.87l-1.42-.72c-1.23-.63-1.46-.73-1.7-.88s-.37-.37-.18-.74a.16.16,0,0,0,0-.24c-.07,0-.13,0-.2.17-.17.31-.38.8-.49,1s-.41.74-.56,1c-.09.16-.08.26,0,.29S763.72,75,763.76,74.93Z"/><path class="cls-2" d="M771.11,73.05c.37.58.39.84.07,1.3,0,.06-.07.15,0,.19s.14,0,.23-.1c.27-.39.54-.81.6-.9s.41-.55.58-.79.09-.17,0-.24-.13,0-.26.17-.29.24-.4.16a1.86,1.86,0,0,1-.37-.42l-.54-.84a.08.08,0,0,1,0-.1l1.28-1.81a.1.1,0,0,1,.08,0L774,70c.08,0-.14.43-.16.48s-.06.15,0,.2.19,0,.32-.21.39-.62.55-.84.4-.51.53-.7.22-.43.16-.47-.13,0-.2.07c-.25.36-.8.29-1.33.17-1.47-.3-5.34-1.2-5.87-1.3-.27,0-.36,0-.43,0s0,.21.16.48Zm.69-3.58-1.12,1.58-1.57-2.26,0,0h0Z"/><path class="cls-2" d="M774.69,59.62c.47-.4.61-.39,1.22.34L777.64,62c1.36,1.63,2.71,1.76,4.2.51s1.31-2.85,0-4.44l-1.48-1.79c-.59-.7-.68-.82-.24-1.19.11-.09.13-.17.07-.23s-.13-.05-.26.06-.53.48-.78.68-.48.36-.84.66c-.13.11-.15.19-.1.25s.14,0,.24,0c.53-.44.64-.33,1.21.36l1.6,1.93c1.15,1.4,1.4,2.32.38,3.18s-2.12.3-3-.8l-1.7-2c-.57-.69-.59-.86-.21-1.17.1-.09.11-.17.06-.23s-.14-.06-.27,0-.58.53-.85.76-.67.52-1.05.83c-.13.11-.16.19-.1.26S774.59,59.7,774.69,59.62Z"/><path class="cls-2" d="M785.78,57.85c.43.81.3.91-.12,1.13-.11.07-.15.13-.11.2s.14.08.28,0c.41-.23.78-.47.85-.5s.49-.24,1-.53c.13-.08.19-.17.15-.25s-.11-.06-.22,0c-.49.27-.77.26-1.22-.51l-1.84-3.23,6.62,1.94a.54.54,0,0,0,.39,0c.09,0,.1-.17,0-.36l-2.69-5.07c-.27-.51-.28-.71.12-.93.14-.07.18-.14.14-.2s-.15-.07-.28,0c-.4.22-.69.42-.78.47s-.57.27-1,.5c-.16.1-.24.18-.19.26s.13.07.22,0c.55-.3.72-.24,1.06.36l2,3.47-6.54-2.05a.94.94,0,0,0-.55,0c-.09.06-.07.19,0,.38Z"/><path class="cls-2" d="M791.82,48.79c.48-.18.59-.06.73.25s.19.51.68,1.8l.54,1.5c.3.82.55,1.5.63,1.86s0,.49-.36.62c-.1,0-.18.09-.15.17s.12.11.27.06l1.07-.43c.23-.08.8-.25,1.36-.45.15-.06.2-.14.16-.22s-.13-.08-.22-.05c-.48.18-.74.21-.89-.13s-.41-1-.72-1.85l-.54-1.5c-.47-1.29-.57-1.53-.64-1.8s0-.52.37-.67c.08,0,.17-.08.13-.2s-.12-.07-.27,0c-.33.12-.82.33-1,.41l-1.13.38c-.17.07-.23.14-.21.21S791.74,48.82,791.82,48.79Z"/><path class="cls-2" d="M796.12,47.14a1,1,0,0,1,1.14.48l3.54,5.1c.16.22.29.34.38.31s.19-.16.26-.53l1.24-5.86c.15-.74.27-1,.69-1,.14,0,.19-.08.17-.16s-.11-.12-.27-.08-.49.14-.82.21-.51.07-1,.17c-.2,0-.29.11-.26.2s.11.09.21.07c.29-.06.45,0,.47.07a.75.75,0,0,1,0,.33l-.8,4.73-2.38-3.63a2.51,2.51,0,0,1-.34-.63c0-.2.2-.24.35-.29s.17-.07.15-.16-.15-.1-.28-.07c-.45.09-.87.22-1.1.27s-.82.14-1.31.24c-.16,0-.27.11-.25.19S796,47.16,796.12,47.14Z"/><path class="cls-2" d="M805.47,45.4c.51,0,.71.08.74.45s0,.53.13,1.91l.1,1.61c0,.47,0,.92.07,1.29.07,1,0,1.12-.51,1.15-.11,0-.18,0-.18.13s.07.13.23.12L807.2,52c1-.07,1.88-.07,2.77-.13.19,0,.26-.09.31-.29a8.44,8.44,0,0,0,0-1c0-.13,0-.22-.13-.2s-.12.07-.14.18c0,.37-.12.53-.33.65a4.61,4.61,0,0,1-1.15.19c-.66,0-.75,0-.79-.6,0-.27-.06-1.07-.13-2.09,0,0,0-.05.05-.06l1.25,0c.43,0,.54.32.55.6a.14.14,0,0,0,.14.13c.11,0,.12-.13.11-.23,0-.49,0-1.15,0-1.27s0-.12-.11-.12-.11.09-.22.19a1.49,1.49,0,0,1-.78.22l-1,.05c-.06,0-.08,0-.08-.06l-.16-2.43s0,0,0,0c1.77-.11,1.84-.07,2,.52,0,.07,0,.17.13.16a.12.12,0,0,0,.13-.15,8.5,8.5,0,0,1,0-1.19c0-.07,0-.13-.11-.13a2.14,2.14,0,0,1-.54.14l-2.28.14-1.33.06c-.17,0-.24.06-.23.15S805.32,45.4,805.47,45.4Z"/><path class="cls-2" d="M812.39,51.81c.36,0,.94.06,1.12.08l1.34.15c.16,0,.22,0,.23-.12s-.06-.12-.14-.13c-.72-.07-.79-.26-.7-1.21l.13-1.41s0,0,0,0l.8.1a.18.18,0,0,1,.14.08c.3.43.53.88.77,1.3.64,1.06,1.12,1.61,2.13,1.71l.87.08c.15,0,.22,0,.23-.12s-.06-.12-.14-.13c-.72-.07-1.32-.55-2.93-3.25a2.45,2.45,0,0,0,1.36-1.9c.12-1.29-1-1.78-2.2-1.89-.27,0-1-.06-1.28-.08s-.76-.1-1.25-.14c-.18,0-.25,0-.25.1s0,.13.18.15c.7.06.71.21.64,1l-.4,4.33c-.08.88-.16,1.09-.68,1-.11,0-.2,0-.21.11S812.23,51.8,812.39,51.81Zm2.29-6.1c0-.06,0-.12.53-.08a1.41,1.41,0,0,1,1.2,1.73c-.07.82-.45,1.43-1.27,1.36-.51,0-.72-.13-.71-.29Z"/><path class="cls-2" d="M821.43,53.18a2.14,2.14,0,0,0,2.76-1.39c.51-2.07-2.09-3-1.77-4.34a.92.92,0,0,1,1.22-.63,1.11,1.11,0,0,1,.92,1.26c0,.09,0,.21.09.23s.17-.05.22-.27c.17-.7.26-.94.28-1s0-.11-.08-.17a3.89,3.89,0,0,0-1.2-.45,1.88,1.88,0,0,0-2.51,1.21c-.49,2,2.08,2.88,1.7,4.43a1.07,1.07,0,0,1-1.39.69,1.29,1.29,0,0,1-1-1.61c0-.1,0-.2-.08-.22s-.18.06-.22.22L820,52.32C819.94,52.59,820.53,53,821.43,53.18Z"/><path class="cls-2" d="M825.72,54.28l1.1.37c.23.09.76.33,1.32.54.15.05.24,0,.27-.06s0-.15-.14-.18c-.48-.18-.7-.33-.59-.68s.35-1.05.66-1.87l.56-1.5c.48-1.29.56-1.53.68-1.79s.32-.41.71-.27c.08,0,.19,0,.23-.06s0-.14-.19-.19l-1.06-.37c-.25-.09-.78-.32-1.11-.44-.17-.07-.27-.05-.29,0s0,.16.13.19c.48.18.49.34.39.67s-.18.52-.65,1.81l-.56,1.5c-.3.82-.56,1.49-.73,1.82s-.32.37-.68.24c-.1,0-.18-.05-.21,0S825.57,54.23,825.72,54.28Z"/><path class="cls-2" d="M830.14,55.73c0,.07,0,.15.14.23.32.18.83.43,1,.54.4.22,1.06.72,1.65,1,2,1.13,4.18,1,5.37-1.15s0-3.87-2.37-5.21c-.48-.27-1-.53-1.25-.67s-.71-.44-1.12-.67c-.16-.09-.25-.08-.29,0s0,.14.12.21c.43.24.55.45.37.78s-.26.48-.93,1.68l-.78,1.4c-1.11,2-1.24,2.06-1.59,1.87C830.29,55.67,830.19,55.64,830.14,55.73Zm2.61-.5,2.07-3.67c.14-.25.2-.3.75,0,1.75,1,2.43,2.65,1.48,4.41s-2.2,2-3.88,1.11C832.14,56.51,832.17,56.28,832.75,55.23Z"/><path class="cls-2" d="M837.47,59.84c-.06,0-.14-.08-.19,0s0,.15.08.25l.85.67.73.65c.09.07.17.1.23,0s0-.13-.13-.27-.22-.31-.13-.42a2.07,2.07,0,0,1,.45-.33l.88-.47s.07,0,.1,0L842,61.39s.05.06,0,.08l-.52,1.58c0,.08-.42-.18-.47-.2s-.14-.08-.2,0,0,.19.18.34l.8.62c.19.15.47.44.65.59s.4.25.45.2,0-.13-.06-.2c-.33-.28-.21-.83,0-1.35.43-1.44,1.66-5.21,1.81-5.73.08-.26.08-.35,0-.43s-.21,0-.49.12l-5.41,2.88C838.17,60.21,837.9,60.2,837.47,59.84Zm5.73-1.57v0l-.93,2.6-1.48-1.25Z"/><path class="cls-2" d="M844.24,65.67c-.14-.17-.22-.23-.3-.17s-.05.15,0,.27c.23.28.61.7.75.87.29.35.73,1.06,1.16,1.57,1.46,1.79,3.55,2.43,5.42.88s1.43-3.59-.32-5.72c-.36-.42-.74-.85-.92-1.07s-.51-.67-.81-1c-.12-.14-.2-.16-.27-.11s0,.13,0,.24c.32.38.36.62.06.86s-.41.36-1.47,1.24l-1.23,1C844.64,66,844.49,66,844.24,65.67Zm2.31.32,3.26-2.68c.22-.18.29-.21.7.28,1.27,1.54,1.3,3.36-.22,4.65s-2.8,1.11-4-.38C845.52,67,845.63,66.75,846.55,66Z"/><path class="cls-2" d="M853.91,81.57a.39.39,0,0,0,.37.13,8,8,0,0,0,1.21-.31c.09,0,.14-.1.11-.18s-.08-.09-.26-.07c-.78.1-1.23-.16-1.75-1.36-.65-1.47-.16-3,1.78-3.88,1.59-.63,2.94-.42,3.64,1.18.43,1,.49,2.15-.39,2.54-.14.06-.2.14-.16.23s.13.09.28,0,.63-.25.92-.36.41-.12.47-.16.11-.09.06-.22a15.05,15.05,0,0,0-.65-2.16c-.88-2-2.77-3.2-4.8-2.31-2.39,1-2.61,3.36-1.68,5.45A5.28,5.28,0,0,0,853.91,81.57Z"/><path class="cls-2" d="M854.62,82.84c0-.08-.07-.15-.16-.12s-.11.09-.08.25c.12.46.26.94.29,1,.06.27.14.67.21.95,0,.12.06.19.17.16s.1-.09.05-.3,0-.38.14-.41a2,2,0,0,1,.56,0l1,.15s.06,0,.07.07l.51,2.15s0,.07,0,.09l-1.36,1c-.07,0-.23-.39-.25-.44s-.08-.14-.16-.12-.11.15-.06.38.22.71.28,1,.12.63.17.86.17.44.24.43.11-.09.08-.2c-.1-.42.32-.79.76-1.11,1.19-.91,4.42-3.22,4.85-3.55.21-.16.27-.24.25-.33s-.14-.16-.46-.2l-6.06-.88C855,83.54,854.75,83.38,854.62,82.84ZM860.16,85h0l0,0-2.28,1.55-.45-1.88Z"/><path class="cls-2" d="M861.94,89.94c-.1,0-.19,0-.18.15a.14.14,0,0,0,.15.13c.34,0,.55.24.64,1l.14,1.31-4.51.38c-1.43.13-1.56,0-1.6-.46,0-.11-.05-.19-.14-.17s-.13.07-.12.23c0,.37.11,1,.13,1.15s0,.84.1,1.44c0,.13.06.22.15.2s.11-.09.11-.19c-.07-.73,0-.83,1.53-1l4.45-.38.07,1.1c.06.82-.11,1-.48,1.09-.17,0-.22.08-.21.17s.07.1.21.1.86,0,1-.05.24-.06.23-.14a3.52,3.52,0,0,1-.17-.87l-.36-4.1a3.16,3.16,0,0,1,.09-.84c0-.08-.06-.1-.22-.14A6.69,6.69,0,0,0,861.94,89.94Z"/><path class="cls-2" d="M864.57,103.38c0-.06-.77-1.36-1.11-1.88a3.49,3.49,0,0,0-3.24-3.56,3.52,3.52,0,0,0-3.91,3.42,3.65,3.65,0,0,0,3.41,4.15c2.06.18,3.49-1.1,3.73-3.32.2.71.45,1.65.44,1.68a.18.18,0,0,0,.27.1,3.21,3.21,0,0,0,.37-.21C864.61,103.7,864.68,103.58,864.57,103.38Zm-1.6-1.62c-.13,1.47-1.44,2.53-3.47,2.35-2.58-.22-2.74-1.7-2.69-2.32.15-1.72,1.71-2.64,3.57-2.47C862.61,99.51,863.06,100.74,863,101.76Z"/><path class="cls-2" d="M862.11,108.68c-.16.64-.3.6-1.33.34l-3.45-.9c-1.43-.37-1.6-.44-1.45-1,0-.11,0-.19-.08-.21s-.14,0-.19.19c-.09.36-.21.92-.26,1.12-.18.72-.39,1.29-.73,2.58-.11.45-.09.55.11.67a9.6,9.6,0,0,0,1.1.43c.15,0,.21,0,.24-.06s-.08-.16-.14-.19c-.59-.27-.78-.5-.54-1.45.29-1.12.41-1.19,1.63-.87l3.45.89c1.12.29,1.14.37,1,1,0,.14,0,.21.08.23s.13,0,.17-.19c.1-.36.24-1,.29-1.21s.24-.79.34-1.22q.07-.24-.06-.27C862.2,108.49,862.15,108.54,862.11,108.68Z"/><path class="cls-2" d="M859.93,115.92c-.19.48-.35.48-.68.37s-.51-.19-1.79-.7L856,115c-.81-.33-1.48-.6-1.8-.78s-.36-.33-.22-.68c0-.11,0-.19,0-.23s-.16,0-.22.16l-.4,1.09c-.09.22-.35.75-.57,1.3-.06.15,0,.24,0,.27s.15,0,.19-.13c.19-.48.34-.69.69-.57s1,.38,1.85.71l1.48.6c1.28.52,1.52.6,1.77.73s.4.33.24.72c0,.08,0,.19.06.23s.14,0,.2-.18c.13-.33.31-.83.4-1s.34-.76.47-1.09c.07-.17.05-.27,0-.3S860,115.84,859.93,115.92Z"/><path class="cls-2" d="M855.16,119.46c-2.22-1.34-4.25-.14-5.4,1.84a5.55,5.55,0,0,0-.68,1.54.43.43,0,0,0,.12.38,9.31,9.31,0,0,0,1,.8c.08,0,.17,0,.21,0s0-.12-.09-.25c-.55-.57-.59-1.1.06-2.22.81-1.39,2.36-1.91,4.2-.84,1.45.91,2.06,2.13,1.18,3.64-.54.93-1.45,1.67-2.28,1.18-.14-.08-.24-.08-.29,0s0,.16.14.25.58.37.84.53.34.26.4.29.14,0,.22-.08a15.44,15.44,0,0,0,1.36-1.8C857.21,122.83,857.08,120.58,855.16,119.46Z"/><path class="cls-2" d="M848.44,125.43c-.32-.6-.32-.87,0-1.3,0,0,.08-.13,0-.19s-.14,0-.25.08l-.68.85c-.18.21-.46.5-.64.73s-.11.16,0,.23.13,0,.28-.13.3-.22.41-.13a2,2,0,0,1,.33.46l.47.88s0,.07,0,.1l-1.44,1.68s0,.05-.08.05l-1.58-.54c-.08,0,.18-.42.21-.46s.07-.15,0-.2-.19,0-.34.17-.45.6-.62.8-.45.47-.59.65-.26.4-.21.45.14,0,.21-.06c.28-.33.82-.2,1.34,0,1.44.43,5.21,1.68,5.74,1.84.25.07.35.07.42,0s0-.21-.11-.49Zm1.62,4.47,0,0-2.6-.93,1.25-1.48,1.36,2.4s0,0,0,0Z"/><path class="cls-2" d="M786.88,136.44c-.47-.28-1-.56-1.22-.7s-.71-.46-1.11-.7c-.16-.1-.25-.09-.29,0s0,.13.11.21c.43.26.55.46.36.79s-.27.47-1,1.66l-.81,1.37c-1.16,1.95-1.29,2-1.64,1.82-.19-.11-.28-.14-.33-.05s0,.15.13.23c.31.19.82.46,1,.57.39.23,1,.75,1.62,1.09,2,1.18,4.15,1.08,5.39-1S789.24,137.84,786.88,136.44Zm1,4.81c-1,1.76-2.25,2-3.9,1-1-.6-1-.83-.37-1.86l2.17-3.61c.15-.25.2-.3.75,0C788.21,137.82,788.86,139.52,787.85,141.25Z"/><path class="cls-2" d="M796.59,141l-2.14-.79c-.24-.09-.77-.31-1.24-.48-.16-.06-.24,0-.28,0s0,.13.16.19c.48.17.62.35.49.71l-.65,1.79-.56,1.51c-.16.45-.33.87-.46,1.21-.35,1-.45,1-.93.85-.11,0-.18,0-.22,0s0,.15.16.2c.35.12.9.3,1.1.38.91.34,1.74.69,2.58,1a.3.3,0,0,0,.39-.14,7,7,0,0,0,.46-.91c0-.11.06-.21,0-.24s-.14,0-.2.11c-.19.33-.33.44-.57.47a4.83,4.83,0,0,1-1.13-.3c-.61-.23-.68-.28-.47-.86l.72-2a0,0,0,0,1,.07,0l1.16.45c.4.15.36.51.26.77a.13.13,0,0,0,.07.17c.12,0,.17-.07.2-.16.17-.46.5-1,.55-1.15a.11.11,0,0,0-.07-.15s-.13,0-.27.08a1.49,1.49,0,0,1-.81-.12l-.9-.34s-.07,0,0-.08l.84-2.29s0,0,.05,0c1.67.61,1.71.68,1.58,1.26,0,.08-.06.17,0,.21a.14.14,0,0,0,.19-.09,7.26,7.26,0,0,1,.51-1.07c0-.07,0-.14-.05-.16A2,2,0,0,1,796.59,141Z"/><path class="cls-2" d="M809.45,143.49a16.49,16.49,0,0,0-2.2-.49c-2.15-.21-4.14.85-4.36,3.05-.29,2.58,1.65,3.92,3.93,4.14a5.37,5.37,0,0,0,1.67,0,.41.41,0,0,0,.3-.27,8.47,8.47,0,0,0,.32-1.2c0-.1,0-.17-.1-.18s-.13,0-.19.19c-.29.73-.75,1-2,.86-1.6-.15-2.72-1.34-2.51-3.46.23-1.69,1.08-2.76,2.8-2.59,1.07.11,2.12.63,2,1.58,0,.16,0,.25.12.26s.14-.07.17-.23.09-.67.13-1,.09-.42.1-.49S809.58,143.51,809.45,143.49Z"/><path class="cls-2" d="M820.57,149.24c-.52,0-.73,0-.83-.39s-.17-1.11-.26-1.93l-.17-1.59c-.16-1.36-.18-1.61-.19-1.9s.09-.52.5-.56c.15,0,.2-.07.2-.14s-.09-.13-.25-.11l-1.15.15c-.25,0-.82.06-1.32.12-.16,0-.24.06-.23.15s.09.12.22.11c.45-.05.69,0,.76.42,0,.28.08.53.23,1.9l0,.39a0,0,0,0,1,0,0l-3.45.36s0,0,0,0l0-.39c-.15-1.36-.18-1.61-.18-1.9s.08-.51.48-.56c.16,0,.22-.07.21-.16s-.09-.11-.26-.1l-1.13.16-1.33.11c-.17,0-.24.08-.22.16s.08.12.22.11c.48,0,.68,0,.75.41s.07.53.22,1.91l.18,1.59a18.88,18.88,0,0,1,.16,1.91c0,.4-.07.5-.49.55-.11,0-.19.05-.18.14s.09.13.24.11l1.15-.15,1.42-.13c.15,0,.23-.08.22-.16s-.1-.11-.2-.1c-.52.06-.73,0-.83-.39s-.16-1.1-.25-1.92l-.07-.54a0,0,0,0,1,0-.05l3.45-.37s0,0,0,0l.07.56c.09.82.16,1.53.16,1.91s0,.51-.49.56c-.11,0-.19,0-.18.14s.08.13.25.11l1.14-.16c.25,0,.83-.06,1.42-.12.16,0,.22-.09.22-.16S820.67,149.23,820.57,149.24Z"/><path class="cls-2" d="M827.13,147.45c-.49.14-.75.16-.87-.19s-.35-1-.6-1.89l-.45-1.53c-.39-1.32-.47-1.56-.53-1.83s0-.52.4-.64c.09,0,.19-.08.15-.2s-.11-.08-.26,0l-1.07.34-1.15.31c-.18.05-.24.12-.22.19s.14.1.22.08c.49-.15.59,0,.71.29s.17.52.57,1.84l.45,1.53c.25.84.45,1.53.51,1.89s0,.49-.4.6c-.1,0-.18.08-.15.16s.11.12.26.07l1.1-.36c.23-.07.8-.2,1.38-.37.15,0,.2-.12.18-.2S827.23,147.42,827.13,147.45Z"/><path class="cls-2" d="M834.69,143.09c-.06-.13-.12-.17-.2-.14s-.08.16-.06.23c.17.62.1.92-.79,1.32-1,.48-1.17.44-1.7-.71l-1.48-3.24c-.48-1.05-.42-1.12.12-1.36.13-.06.17-.13.13-.21s-.11-.09-.26,0c-.33.16-.93.46-1.12.54s-.77.31-1.16.51c-.16.05-.21.13-.18.21s.11.08.25,0c.59-.27.65-.14,1.09.83l1.48,3.24c.62,1.34.66,1.52.14,1.76-.1,0-.17.1-.12.18s.11.1.27,0c.33-.15.84-.41,1-.5.68-.3,1.25-.5,2.46-1.05.43-.2.49-.28.45-.5A8.4,8.4,0,0,0,834.69,143.09Z"/><path class="cls-2" d="M841.3,139.14c-.06-.1-.13-.18-.21-.11s-.07.12,0,.23a.71.71,0,0,1,0,.73,4.43,4.43,0,0,1-.9.73c-.55.37-.64.39-1-.12l-1.15-1.75s0,0,0-.07l1.06-.67c.36-.24.62,0,.78.25a.12.12,0,0,0,.17,0c.1-.07,0-.18,0-.26a12,12,0,0,1-.6-1.11c-.05-.08-.11-.08-.16,0s0,.13-.1.27a1.43,1.43,0,0,1-.57.57c-.32.22-.71.46-.82.53s-.07,0-.09,0l-1.35-2s0,0,0-.06c1.48-1,1.56-1,2-.52,0,.06.11.14.19.08a.14.14,0,0,0,.05-.21,7.45,7.45,0,0,1-.56-1c0-.06-.1-.1-.16-.06a2.11,2.11,0,0,1-.4.38l-1.91,1.27c-.21.14-.71.43-1.12.71-.14.09-.18.17-.13.24s.12.07.24,0c.43-.28.66-.29.86,0s.31.44,1.07,1.59l.89,1.34.7,1.08c.56.85.55,1,.13,1.26-.1.06-.14.13-.09.2s.12.08.26,0l.95-.66c.81-.54,1.59-1,2.33-1.48a.3.3,0,0,0,.13-.4A7.83,7.83,0,0,0,841.3,139.14Z"/><text class="cls-3" transform="translate(471.77 140.58)">APP</text></svg>